<?xml version="1.0" standalone="no"?>
<!DOCTYPE svg PUBLIC "-//W3C//DTD SVG 20010904//EN"
 "http://www.w3.org/TR/2001/REC-SVG-20010904/DTD/svg10.dtd">
<svg version="1.0" xmlns="http://www.w3.org/2000/svg"
 width="124.000000pt" height="124.000000pt" viewBox="0 0 124.000000 124.000000"
 preserveAspectRatio="xMidYMid meet">

<g transform="translate(0.000000,124.000000) scale(0.100000,-0.100000)"
fill="#000000" stroke="none">
<path d="M547 1135 c-80 -14 -220 -81 -225 -107 -5 -24 22 -23 56 1 125 87
308 100 460 34 32 -14 35 -33 6 -33 -8 0 -14 -9 -14 -20 0 -23 31 -26 93 -9
38 10 39 11 32 47 -13 71 -55 119 -55 63 0 -29 -9 -30 -58 -8 -46 20 -166 47
-207 45 -11 0 -51 -6 -88 -13z"/>
<path d="M239 968 c-8 -13 -21 -39 -31 -58 -9 -19 -39 -83 -68 -143 -28 -59
-48 -112 -45 -117 4 -6 30 -22 58 -37 42 -21 56 -24 78 -16 24 9 28 8 38 -14
6 -14 14 -53 18 -87 6 -60 24 -96 49 -96 7 0 26 -11 42 -25 17 -14 36 -25 43
-25 7 0 23 -9 35 -21 13 -12 40 -23 66 -25 24 -2 59 -6 78 -7 19 -2 45 -9 57
-15 37 -20 87 -15 113 13 13 14 31 25 41 25 10 0 26 12 36 26 10 15 32 40 49
58 18 17 35 43 38 59 4 15 11 27 16 27 19 0 50 40 50 65 0 26 26 46 49 37 19
-7 131 49 131 65 0 27 -139 320 -154 326 -20 8 -99 -33 -129 -66 l-28 -30 -87
9 c-48 5 -154 9 -236 9 -141 0 -149 1 -156 21 -5 13 -29 29 -65 42 -70 27 -70
27 -86 0z m75 -38 c7 0 17 -15 22 -32 l10 -33 79 -3 c115 -4 118 -7 48 -52
-86 -54 -94 -101 -22 -130 28 -12 36 -11 86 15 l55 27 27 -19 c49 -37 105 -60
160 -66 65 -8 164 -55 169 -80 3 -12 -7 -22 -31 -32 -29 -12 -33 -18 -29 -43
3 -25 0 -31 -26 -40 -23 -8 -31 -18 -34 -39 -2 -23 -9 -29 -36 -33 -22 -3 -37
-13 -45 -30 -15 -29 -44 -36 -71 -17 -17 12 -17 17 -5 50 12 34 11 39 -6 56
-11 11 -47 33 -79 50 -33 17 -65 36 -73 42 -12 11 -37 25 -101 60 -19 11 -28
10 -54 -5 -25 -15 -32 -16 -39 -5 -5 8 -9 19 -9 26 0 6 -12 21 -27 33 -21 16
-35 20 -63 15 -27 -5 -42 -2 -57 12 l-21 18 36 76 c21 43 43 92 51 110 24 56
43 80 58 75 8 -4 20 -6 27 -6z"/>
<path d="M103 514 c-21 -46 -23 -58 -12 -65 9 -6 18 -3 25 6 6 8 14 15 18 15
4 0 21 -30 38 -67 61 -134 217 -254 366 -283 76 -15 198 -8 266 15 72 25 169
89 221 147 77 86 149 262 115 283 -15 9 -26 -8 -35 -54 -11 -57 -64 -155 -113
-209 -161 -173 -418 -203 -621 -72 -67 42 -124 108 -163 187 -32 66 -31 86 3
65 16 -10 21 -10 26 4 5 12 -5 27 -33 51 -56 47 -70 43 -101 -23z"/>
</g>
</svg>
