<?xml version="1.0" standalone="no"?>
<!DOCTYPE svg PUBLIC "-//W3C//DTD SVG 20010904//EN"
 "http://www.w3.org/TR/2001/REC-SVG-20010904/DTD/svg10.dtd">
<svg version="1.0" xmlns="http://www.w3.org/2000/svg"
 width="164.000000pt" height="142.000000pt" viewBox="0 0 164.000000 142.000000"
 preserveAspectRatio="xMidYMid meet">

<g transform="translate(0.000000,142.000000) scale(0.100000,-0.100000)"
fill="#000000" stroke="none">
<path d="M627 1293 c-18 -18 -3 -53 43 -98 28 -27 50 -56 50 -65 0 -9 -23 -38
-50 -65 -38 -38 -50 -56 -48 -75 2 -18 10 -26 27 -28 18 -3 38 10 82 54 l57
57 60 -57 c61 -58 94 -70 111 -38 12 23 -4 48 -61 100 -21 19 -38 41 -38 50 0
8 25 41 55 73 48 51 55 61 45 79 -18 34 -52 24 -105 -30 -27 -27 -56 -50 -65
-50 -9 0 -38 23 -65 50 -45 46 -80 61 -98 43z"/>
<path d="M294 911 c-18 -11 -45 -36 -60 -57 -26 -33 -29 -46 -29 -109 0 -64 3
-76 29 -109 82 -108 248 -95 314 23 46 82 15 193 -68 246 -51 32 -139 35 -186
6z"/>
<path d="M1145 902 c-53 -37 -85 -94 -85 -155 0 -192 263 -257 350 -86 37 71
21 167 -37 220 -43 40 -66 49 -130 49 -47 -1 -66 -6 -98 -28z"/>
<path d="M283 511 c-63 -16 -124 -66 -156 -126 -17 -33 -21 -59 -21 -145 -1
-58 2 -113 6 -122 7 -17 29 -18 266 -18 217 0 262 2 272 15 8 10 11 49 9 133
-4 116 -4 118 -39 167 -51 70 -109 97 -219 101 -47 2 -101 -1 -118 -5z"/>
<path d="M1155 514 c-36 -9 -104 -46 -124 -68 -50 -55 -61 -91 -61 -209 0 -75
4 -117 12 -125 9 -9 81 -12 263 -12 302 0 285 -7 285 122 0 134 -37 212 -126
264 -39 23 -59 27 -137 30 -51 2 -101 1 -112 -2z"/>
</g>
</svg>
