<?xml version="1.0" standalone="no"?>
<!DOCTYPE svg PUBLIC "-//W3C//DTD SVG 20010904//EN"
 "http://www.w3.org/TR/2001/REC-SVG-20010904/DTD/svg10.dtd">
<svg version="1.0" xmlns="http://www.w3.org/2000/svg"
 width="170.000000pt" height="149.000000pt" viewBox="0 0 170.000000 149.000000"
 preserveAspectRatio="xMidYMid meet">

<g transform="translate(0.000000,149.000000) scale(0.100000,-0.100000)"
fill="#000000" stroke="none">
<path d="M741 1385 c-158 -57 -206 -274 -84 -386 58 -54 82 -63 162 -64 67 0
81 3 124 30 29 18 60 49 79 79 26 43 30 59 30 121 0 59 -4 78 -27 116 -59 97
-180 142 -284 104z m179 -42 c74 -46 105 -101 104 -183 -1 -67 -20 -107 -76
-154 -39 -34 -61 -42 -98 -36 -22 3 -24 8 -10 25 12 15 11 16 -22 19 -7 1 -13
-10 -13 -24 0 -14 -6 -25 -12 -24 -7 1 -24 2 -38 3 -41 2 -118 86 -135 145
-29 105 39 218 150 248 37 10 121 -1 150 -19z"/>
<path d="M757 1306 c-28 -26 -43 -68 -32 -85 12 -21 31 -11 48 24 19 40 53 47
80 17 26 -28 21 -51 -18 -85 -28 -25 -35 -38 -35 -68 0 -56 29 -62 45 -9 4 14
17 34 30 45 55 50 59 103 11 151 -43 43 -90 46 -129 10z"/>
<path d="M314 951 c-108 -50 -140 -198 -62 -287 43 -49 78 -64 146 -64 50 0
66 5 100 30 78 56 103 151 62 236 -43 87 -158 127 -246 85z"/>
<path d="M1171 947 c-24 -13 -56 -42 -73 -68 -27 -39 -29 -50 -26 -105 7 -107
76 -174 181 -174 65 0 100 15 137 57 40 46 50 70 50 126 0 140 -146 230 -269
164z"/>
<path d="M241 525 c-98 -57 -126 -113 -126 -258 0 -96 2 -110 19 -123 31 -22
498 -21 520 2 12 12 16 38 16 113 0 132 -6 153 -53 207 -59 67 -106 84 -230
84 -91 0 -107 -3 -146 -25z"/>
<path d="M1120 533 c-45 -19 -97 -68 -121 -115 -15 -30 -19 -59 -19 -152 0
-104 2 -116 19 -126 12 -6 115 -10 265 -10 292 0 276 -8 276 130 -1 138 -48
228 -144 271 -53 24 -222 25 -276 2z"/>
</g>
</svg>
