<?xml version="1.0" standalone="no"?>
<!DOCTYPE svg PUBLIC "-//W3C//DTD SVG 20010904//EN"
 "http://www.w3.org/TR/2001/REC-SVG-20010904/DTD/svg10.dtd">
<svg version="1.0" xmlns="http://www.w3.org/2000/svg"
 width="143.000000pt" height="134.000000pt" viewBox="0 0 143.000000 134.000000"
 preserveAspectRatio="xMidYMid meet">

<g transform="translate(0.000000,134.000000) scale(0.100000,-0.100000)"
fill="#000000" stroke="none">
<path d="M415 1035 c-23 -22 -25 -32 -25 -107 l0 -84 114 -89 c140 -111 147
-120 112 -152 -24 -22 -26 -31 -26 -99 0 -110 -4 -114 -104 -114 -97 0 -96 0
-96 -91 0 -50 4 -64 25 -84 l24 -25 296 0 c282 0 296 1 315 20 19 19 20 33 20
348 l-1 327 -94 88 -95 87 -221 0 -220 0 -24 -25z"/>
<path d="M277 714 c-54 -41 -97 -77 -97 -80 0 -2 11 -9 25 -14 23 -9 24 -13
27 -107 l3 -98 155 3 c105 2 157 7 162 15 4 7 8 51 8 98 0 81 2 87 22 92 22 6
22 6 3 27 -11 12 -42 38 -70 58 -27 20 -52 39 -55 42 -13 16 -56 40 -71 40 -9
0 -59 -34 -112 -76z m189 -5 l65 -51 -3 -107 -3 -106 -30 0 c-30 0 -30 1 -33
60 -3 68 -17 85 -68 85 -56 0 -64 -7 -64 -62 0 -58 -13 -88 -40 -88 -29 0 -33
14 -32 122 0 85 2 101 18 113 11 7 39 29 64 49 25 20 48 36 53 36 4 0 37 -23
73 -51z m-48 -207 c3 -56 -13 -77 -43 -52 -19 15 -20 96 -2 103 31 14 42 2 45
-51z"/>
</g>
</svg>
