<?xml version="1.0" standalone="no"?>
<!DOCTYPE svg PUBLIC "-//W3C//DTD SVG 20010904//EN"
 "http://www.w3.org/TR/2001/REC-SVG-20010904/DTD/svg10.dtd">
<svg version="1.0" xmlns="http://www.w3.org/2000/svg"
 width="131.000000pt" height="120.000000pt" viewBox="0 0 131.000000 120.000000"
 preserveAspectRatio="xMidYMid meet">

<g transform="translate(0.000000,120.000000) scale(0.100000,-0.100000)"
fill="#000000" stroke="none">
<path d="M382 1073 c-24 -10 -42 -62 -42 -126 0 -75 16 -97 73 -97 20 0 37 -4
37 -10 0 -5 6 -10 13 -10 22 0 87 -69 107 -112 22 -49 26 -137 8 -189 -6 -19
-14 -36 -18 -39 -3 -3 -16 -19 -27 -36 -24 -34 -112 -84 -149 -84 -30 0 -44
-27 -44 -83 0 -56 17 -105 40 -117 11 -6 145 -10 328 -10 290 0 311 1 333 19
l24 19 0 346 0 347 -55 52 c-30 29 -76 71 -102 95 l-48 42 -232 -1 c-128 0
-239 -3 -246 -6z"/>
<path d="M240 812 c-86 -57 -143 -185 -111 -250 4 -9 16 -34 27 -56 48 -100
192 -146 289 -91 48 26 85 59 85 75 0 6 5 10 10 10 6 0 10 8 10 18 0 10 7 27
15 38 19 25 19 93 0 118 -8 11 -15 28 -15 38 0 10 -4 18 -10 18 -5 0 -10 5
-10 11 0 15 -61 69 -77 69 -7 0 -13 5 -13 10 0 18 -171 11 -200 -8z m200 -22
c56 -29 110 -114 110 -175 0 -29 -22 -86 -46 -120 -48 -67 -168 -96 -242 -59
-42 21 -90 80 -103 128 -23 85 21 184 98 225 51 27 132 27 183 1z"/>
<path d="M337 706 c-3 -8 -2 -18 3 -21 13 -8 24 15 12 27 -6 6 -11 4 -15 -6z"/>
<path d="M334 647 c-10 -27 0 -140 14 -145 9 -3 12 16 12 72 0 69 -13 106 -26
73z"/>
</g>
</svg>
