<?xml version="1.0" standalone="no"?>
<!DOCTYPE svg PUBLIC "-//W3C//DTD SVG 20010904//EN"
 "http://www.w3.org/TR/2001/REC-SVG-20010904/DTD/svg10.dtd">
<svg version="1.0" xmlns="http://www.w3.org/2000/svg"
 width="121.000000pt" height="123.000000pt" viewBox="0 0 121.000000 123.000000"
 preserveAspectRatio="xMidYMid meet">

<g transform="translate(0.000000,123.000000) scale(0.100000,-0.100000)"
fill="#000000" stroke="none">
<path d="M550 1007 c-16 -8 -56 -65 -108 -152 -45 -77 -86 -147 -89 -155 -4
-8 -31 -55 -60 -104 -29 -49 -53 -90 -53 -91 0 -6 -112 -201 -121 -209 -5 -6
-9 -33 -9 -62 0 -46 4 -55 31 -78 l31 -26 435 0 435 0 29 29 c39 39 42 91 9
146 -9 17 -29 50 -42 75 -48 86 -70 125 -78 135 -4 6 -19 30 -32 55 -14 25
-34 61 -45 80 -12 19 -49 85 -83 145 -94 166 -118 201 -145 213 -33 15 -74 15
-105 -1z m87 -42 c11 -8 36 -41 54 -72 41 -72 48 -83 93 -163 21 -36 41 -69
45 -75 5 -5 22 -35 38 -65 17 -30 47 -84 68 -120 21 -36 47 -81 58 -100 77
-135 80 -147 45 -180 -21 -19 -33 -20 -433 -20 -455 0 -455 0 -455 62 0 21 60
134 202 380 217 376 229 392 285 353z"/>
<path d="M502 694 c-41 -29 -23 -84 28 -84 33 0 50 17 50 48 0 24 -24 51 -45
52 -6 0 -21 -7 -33 -16z"/>
<path d="M655 653 c-72 -7 -102 -64 -118 -222 -1 -18 -9 -25 -27 -27 -42 -4
-99 -21 -123 -37 -44 -31 -98 -88 -94 -100 3 -9 47 -13 161 -15 142 -2 158 -1
152 14 -3 8 -6 19 -6 22 0 4 -11 20 -25 36 -23 27 -35 76 -17 76 4 0 20 11 37
24 25 20 28 26 16 40 -7 9 -11 23 -7 32 8 22 28 6 21 -17 -4 -13 -2 -19 9 -19
21 0 20 -6 -9 -44 -14 -18 -25 -38 -25 -43 0 -14 67 -133 84 -151 10 -10 15
-10 30 1 17 12 16 17 -15 80 -32 65 -32 67 -14 87 29 33 40 24 53 -46 14 -75
36 -124 56 -124 24 0 27 31 10 83 -11 32 -15 67 -11 101 3 34 0 62 -10 84 -13
27 -14 40 -4 71 15 53 14 88 -5 95 -16 6 -47 6 -119 -1z m75 -58 c0 -8 -4 -15
-9 -15 -13 0 -22 16 -14 24 11 11 23 6 23 -9z"/>
</g>
</svg>
