<?xml version="1.0" standalone="no"?>
<!DOCTYPE svg PUBLIC "-//W3C//DTD SVG 20010904//EN"
 "http://www.w3.org/TR/2001/REC-SVG-20010904/DTD/svg10.dtd">
<svg version="1.0" xmlns="http://www.w3.org/2000/svg"
 width="122.000000pt" height="114.000000pt" viewBox="0 0 122.000000 114.000000"
 preserveAspectRatio="xMidYMid meet">

<g transform="translate(0.000000,114.000000) scale(0.100000,-0.100000)"
fill="#000000" stroke="none">
<path d="M382 1013 c-26 -10 -35 -51 -39 -187 -6 -161 -3 -167 76 -165 69 1
86 10 86 49 0 18 5 35 10 36 6 2 28 -12 50 -31 22 -19 70 -61 107 -93 36 -31
69 -64 73 -72 4 -10 -10 -30 -42 -60 -59 -55 -161 -142 -179 -153 -17 -10 -27
9 -20 38 9 37 -17 55 -79 55 -82 0 -88 -10 -81 -144 3 -61 6 -119 6 -128 0
-10 9 -27 20 -38 19 -19 33 -20 339 -20 l320 0 20 26 c20 26 21 38 21 362 l0
335 -67 67 c-38 36 -85 80 -106 98 l-38 32 -232 -1 c-128 0 -238 -3 -245 -6z"/>
<path d="M530 676 c0 -13 -6 -28 -13 -35 -8 -6 -81 -12 -193 -13 l-179 -3 0
-85 0 -85 184 -5 c194 -5 190 -4 206 -55 3 -11 9 -15 13 -10 4 6 39 37 77 70
109 93 103 83 69 113 -62 57 -152 132 -158 132 -3 0 -6 -11 -6 -24z"/>
</g>
</svg>
