<?xml version="1.0" standalone="no"?>
<!DOCTYPE svg PUBLIC "-//W3C//DTD SVG 20010904//EN"
 "http://www.w3.org/TR/2001/REC-SVG-20010904/DTD/svg10.dtd">
<svg version="1.0" xmlns="http://www.w3.org/2000/svg"
 width="132.000000pt" height="117.000000pt" viewBox="0 0 132.000000 117.000000"
 preserveAspectRatio="xMidYMid meet">

<g transform="translate(0.000000,117.000000) scale(0.100000,-0.100000)"
fill="#000000" stroke="none">
<path d="M364 999 c-15 -17 -20 -40 -23 -117 -3 -94 -4 -97 -37 -130 -23 -23
-39 -32 -52 -28 -27 9 -48 -1 -67 -31 -13 -19 -14 -27 -5 -33 17 -11 3 -47
-20 -53 -16 -4 -20 -14 -20 -46 0 -35 4 -43 25 -51 26 -10 35 -45 13 -53 -9
-3 -7 -12 8 -33 16 -22 29 -29 56 -29 25 0 42 -8 66 -33 32 -33 33 -37 35
-124 2 -85 4 -91 30 -114 l28 -24 304 0 304 0 28 24 28 24 3 338 3 339 -101
97 -101 98 -243 0 c-234 0 -244 -1 -262 -21z m16 -275 c9 -22 15 -25 48 -23
52 4 65 -6 58 -45 -5 -27 -1 -37 24 -61 16 -16 30 -32 30 -37 0 -4 -14 -20
-30 -35 -25 -22 -30 -32 -24 -55 7 -35 -11 -61 -38 -52 -27 8 -68 -4 -68 -21
0 -7 -5 -17 -11 -20 -16 -11 -59 4 -59 20 0 8 -7 15 -15 15 -8 0 -15 5 -15 12
0 9 -3 9 -12 0 -7 -7 -22 -12 -35 -12 -24 0 -28 11 -24 60 1 16 -8 35 -24 50
-32 30 -32 53 1 79 21 16 25 27 21 48 -7 38 8 63 33 56 29 -8 70 5 70 21 0 34
58 33 70 0z"/>
<path d="M304 661 c-67 -29 -84 -118 -35 -173 25 -28 36 -33 75 -33 36 0 51 6
75 29 26 25 31 37 31 76 0 38 -5 51 -28 74 -31 29 -84 41 -118 27z"/>
</g>
</svg>
