<svg width="26" height="26" viewBox="0 0 26 26" fill="none" xmlns="http://www.w3.org/2000/svg">
<path d="M13 13V10.2917L21.125 2.16666L23.8333 4.875L15.7083 13H13Z" stroke="black" stroke-width="2" stroke-linecap="round" stroke-linejoin="round"/>
<path d="M8.66675 13H4.87508C4.15679 13 3.46791 13.2853 2.96 13.7933C2.45209 14.3012 2.16675 14.99 2.16675 15.7083C2.16675 16.4266 2.45209 17.1155 2.96 17.6234C3.46791 18.1313 4.15679 18.4167 4.87508 18.4167H21.1251C21.8434 18.4167 22.5323 18.702 23.0402 19.2099C23.5481 19.7178 23.8334 20.4067 23.8334 21.125C23.8334 21.8433 23.5481 22.5322 23.0402 23.0401C22.5323 23.548 21.8434 23.8333 21.1251 23.8333H9.75008" stroke="black" stroke-width="2" stroke-linecap="round" stroke-linejoin="round"/>
</svg>
