<svg width="26" height="26" viewBox="0 0 25 25" fill="none" xmlns="http://www.w3.org/2000/svg">
<path d="M12.4999 14.5833C14.7978 14.5833 16.6666 12.7146 16.6666 10.4167C16.6666 8.11875 14.7978 6.25 12.4999 6.25C10.202 6.25 8.33325 8.11875 8.33325 10.4167C8.33325 12.7146 10.202 14.5833 12.4999 14.5833ZM12.4999 8.33333C13.6489 8.33333 14.5833 9.26771 14.5833 10.4167C14.5833 11.5656 13.6489 12.5 12.4999 12.5C11.351 12.5 10.4166 11.5656 10.4166 10.4167C10.4166 9.26771 11.351 8.33333 12.4999 8.33333Z" fill="black"/>
<path d="M11.8958 22.7229C12.0722 22.8485 12.2834 22.916 12.4999 22.916C12.7165 22.916 12.9277 22.8485 13.1041 22.7229C13.4208 22.499 20.8635 17.125 20.8333 10.4167C20.8333 5.82188 17.0947 2.08334 12.4999 2.08334C7.90514 2.08334 4.1666 5.82188 4.1666 10.4115C4.13639 17.125 11.5791 22.499 11.8958 22.7229ZM12.4999 4.16667C15.9468 4.16667 18.7499 6.96979 18.7499 10.4219C18.7718 15.0448 14.1791 19.1958 12.4999 20.5573C10.8218 19.1948 6.22805 15.0427 6.24993 10.4167C6.24993 6.96979 9.05305 4.16667 12.4999 4.16667Z" fill="black"/>
</svg>
