<svg width="26" height="26" viewBox="0 0 27 27" fill="none" xmlns="http://www.w3.org/2000/svg">
<path d="M7.875 10.125C7.875 10.4234 7.75647 10.7095 7.54549 10.9205C7.33452 11.1315 7.04837 11.25 6.75 11.25C6.45163 11.25 6.16548 11.1315 5.95451 10.9205C5.74353 10.7095 5.625 10.4234 5.625 10.125C5.625 9.82663 5.74353 9.54048 5.95451 9.32951C6.16548 9.11853 6.45163 9 6.75 9C7.04837 9 7.33452 9.11853 7.54549 9.32951C7.75647 9.54048 7.875 9.82663 7.875 10.125ZM7.875 13.5C7.875 13.7984 7.75647 14.0845 7.54549 14.2955C7.33452 14.5065 7.04837 14.625 6.75 14.625C6.45163 14.625 6.16548 14.5065 5.95451 14.2955C5.74353 14.0845 5.625 13.7984 5.625 13.5C5.625 13.2016 5.74353 12.9155 5.95451 12.7045C6.16548 12.4935 6.45163 12.375 6.75 12.375C7.04837 12.375 7.33452 12.4935 7.54549 12.7045C7.75647 12.9155 7.875 13.2016 7.875 13.5ZM11.25 13.5C11.25 13.7984 11.1315 14.0845 10.9205 14.2955C10.7095 14.5065 10.4234 14.625 10.125 14.625C9.82663 14.625 9.54048 14.5065 9.3295 14.2955C9.11853 14.0845 9 13.7984 9 13.5C9 13.2016 9.11853 12.9155 9.3295 12.7045C9.54048 12.4935 9.82663 12.375 10.125 12.375C10.4234 12.375 10.7095 12.4935 10.9205 12.7045C11.1315 12.9155 11.25 13.2016 11.25 13.5ZM11.25 10.125C11.25 10.4234 11.1315 10.7095 10.9205 10.9205C10.7095 11.1315 10.4234 11.25 10.125 11.25C9.82663 11.25 9.54048 11.1315 9.3295 10.9205C9.11853 10.7095 9 10.4234 9 10.125C9 9.82663 9.11853 9.54048 9.3295 9.32951C9.54048 9.11853 9.82663 9 10.125 9C10.4234 9 10.7095 9.11853 10.9205 9.32951C11.1315 9.54048 11.25 9.82663 11.25 10.125ZM14.625 10.125C14.625 10.4234 14.5065 10.7095 14.2955 10.9205C14.0845 11.1315 13.7984 11.25 13.5 11.25C13.2016 11.25 12.9155 11.1315 12.7045 10.9205C12.4935 10.7095 12.375 10.4234 12.375 10.125C12.375 9.82663 12.4935 9.54048 12.7045 9.32951C12.9155 9.11853 13.2016 9 13.5 9C13.7984 9 14.0845 9.11853 14.2955 9.32951C14.5065 9.54048 14.625 9.82663 14.625 10.125ZM14.625 13.5C14.625 13.7984 14.5065 14.0845 14.2955 14.2955C14.0845 14.5065 13.7984 14.625 13.5 14.625C13.2016 14.625 12.9155 14.5065 12.7045 14.2955C12.4935 14.0845 12.375 13.7984 12.375 13.5C12.375 13.2016 12.4935 12.9155 12.7045 12.7045C12.9155 12.4935 13.2016 12.375 13.5 12.375C13.7984 12.375 14.0845 12.4935 14.2955 12.7045C14.5065 12.9155 14.625 13.2016 14.625 13.5ZM18 10.125C18 10.4234 17.8815 10.7095 17.6705 10.9205C17.4595 11.1315 17.1734 11.25 16.875 11.25C16.5766 11.25 16.2905 11.1315 16.0795 10.9205C15.8685 10.7095 15.75 10.4234 15.75 10.125C15.75 9.82663 15.8685 9.54048 16.0795 9.32951C16.2905 9.11853 16.5766 9 16.875 9C17.1734 9 17.4595 9.11853 17.6705 9.32951C17.8815 9.54048 18 9.82663 18 10.125ZM18 13.5C18 13.7984 17.8815 14.0845 17.6705 14.2955C17.4595 14.5065 17.1734 14.625 16.875 14.625C16.5766 14.625 16.2905 14.5065 16.0795 14.2955C15.8685 14.0845 15.75 13.7984 15.75 13.5C15.75 13.2016 15.8685 12.9155 16.0795 12.7045C16.2905 12.4935 16.5766 12.375 16.875 12.375C17.1734 12.375 17.4595 12.4935 17.6705 12.7045C17.8815 12.9155 18 13.2016 18 13.5ZM21.375 10.125C21.375 10.4234 21.2565 10.7095 21.0455 10.9205C20.8345 11.1315 20.5484 11.25 20.25 11.25C19.9516 11.25 19.6655 11.1315 19.4545 10.9205C19.2435 10.7095 19.125 10.4234 19.125 10.125C19.125 9.82663 19.2435 9.54048 19.4545 9.32951C19.6655 9.11853 19.9516 9 20.25 9C20.5484 9 20.8345 9.11853 21.0455 9.32951C21.2565 9.54048 21.375 9.82663 21.375 10.125ZM21.375 13.5C21.375 13.7984 21.2565 14.0845 21.0455 14.2955C20.8345 14.5065 20.5484 14.625 20.25 14.625C19.9516 14.625 19.6655 14.5065 19.4545 14.2955C19.2435 14.0845 19.125 13.7984 19.125 13.5C19.125 13.2016 19.2435 12.9155 19.4545 12.7045C19.6655 12.4935 19.9516 12.375 20.25 12.375C20.5484 12.375 20.8345 12.4935 21.0455 12.7045C21.2565 12.9155 21.375 13.2016 21.375 13.5Z" fill="black"/>
<path d="M18 5.625C21.1815 5.625 22.7734 5.625 23.7611 6.61388C24.75 7.60163 24.75 9.1935 24.75 12.375V14.625C24.75 17.8065 24.75 19.3984 23.7611 20.3861C22.7734 21.375 21.1815 21.375 18 21.375H9C5.8185 21.375 4.22663 21.375 3.23888 20.3861C2.25 19.3984 2.25 17.8065 2.25 14.625V12.375C2.25 9.1935 2.25 7.60163 3.23888 6.61388C4.22663 5.625 5.8185 5.625 9 5.625H13.5M7.875 18H19.125" stroke="black" stroke-width="1.5" stroke-linecap="round"/>
</svg>
