<svg width="26" height="26" viewBox="0 0 26 26" fill="none" xmlns="http://www.w3.org/2000/svg">
<mask id="path-1-inside-1_50_198" fill="white">
<path d="M5.20002 5.19998C5.20002 4.51041 5.47394 3.84909 5.96154 3.3615C6.44913 2.8739 7.11045 2.59998 7.80002 2.59998H13.7618C14.2788 2.60043 14.7745 2.80618 15.1398 3.17198L20.2293 8.26018C20.5946 8.62573 20.7999 9.12136 20.8 9.63818V20.8C20.8 21.4895 20.5261 22.1509 20.0385 22.6385C19.5509 23.126 18.8896 23.4 18.2 23.4H15.4895C15.3923 23.126 15.2351 22.8773 15.0293 22.672L14.4573 22.1H18.2C18.5448 22.1 18.8755 21.963 19.1193 21.7192C19.3631 21.4754 19.5 21.1448 19.5 20.8V10.4H14.95C14.4328 10.4 13.9369 10.1945 13.5712 9.82883C13.2055 9.46314 13 8.96715 13 8.44998V3.89998H7.80002C7.45523 3.89998 7.12457 4.03694 6.88078 4.28074C6.63698 4.52453 6.50002 4.85519 6.50002 5.19998V11.7351C6.0567 11.7848 5.62053 11.8852 5.20002 12.0341V5.19998ZM14.95 9.09998H19.2309L14.3 4.16908V8.44998C14.3 8.62237 14.3685 8.7877 14.4904 8.90959C14.6123 9.03149 14.7776 9.09998 14.95 9.09998ZM7.15002 22.1C8.17182 22.1 9.11562 21.762 9.87482 21.1939L13.1898 24.5089C13.2502 24.5693 13.3218 24.6173 13.4007 24.65C13.4796 24.6827 13.5641 24.6996 13.6496 24.6997C13.735 24.6997 13.8195 24.683 13.8985 24.6504C13.9774 24.6177 14.0491 24.5699 14.1096 24.5095C14.17 24.4492 14.218 24.3775 14.2507 24.2986C14.2834 24.2197 14.3003 24.1352 14.3004 24.0498C14.3004 23.9644 14.2837 23.8798 14.251 23.8009C14.2184 23.7219 14.1706 23.6502 14.1102 23.5898L10.7952 20.2748C11.4088 19.4542 11.7275 18.4505 11.6996 17.4262C11.6718 16.402 11.299 15.4171 10.6417 14.6311C9.98435 13.8451 9.08097 13.3039 8.07779 13.0953C7.07462 12.8867 6.03038 13.0227 5.11418 13.4815C4.19797 13.9402 3.46343 14.6948 3.0295 15.623C2.59556 16.5513 2.48763 17.5988 2.72319 18.596C2.95874 19.5932 3.52399 20.4817 4.32741 21.1176C5.13083 21.7535 6.12537 22.0997 7.15002 22.1ZM7.15002 20.8C6.28806 20.8 5.46141 20.4576 4.85192 19.8481C4.24243 19.2386 3.90002 18.4119 3.90002 17.55C3.90002 16.688 4.24243 15.8614 4.85192 15.2519C5.46141 14.6424 6.28806 14.3 7.15002 14.3C8.01197 14.3 8.83862 14.6424 9.44811 15.2519C10.0576 15.8614 10.4 16.688 10.4 17.55C10.4 18.4119 10.0576 19.2386 9.44811 19.8481C8.83862 20.4576 8.01197 20.8 7.15002 20.8Z"/>
</mask>
<path d="M5.20002 5.19998C5.20002 4.51041 5.47394 3.84909 5.96154 3.3615C6.44913 2.8739 7.11045 2.59998 7.80002 2.59998H13.7618C14.2788 2.60043 14.7745 2.80618 15.1398 3.17198L20.2293 8.26018C20.5946 8.62573 20.7999 9.12136 20.8 9.63818V20.8C20.8 21.4895 20.5261 22.1509 20.0385 22.6385C19.5509 23.126 18.8896 23.4 18.2 23.4H15.4895C15.3923 23.126 15.2351 22.8773 15.0293 22.672L14.4573 22.1H18.2C18.5448 22.1 18.8755 21.963 19.1193 21.7192C19.3631 21.4754 19.5 21.1448 19.5 20.8V10.4H14.95C14.4328 10.4 13.9369 10.1945 13.5712 9.82883C13.2055 9.46314 13 8.96715 13 8.44998V3.89998H7.80002C7.45523 3.89998 7.12457 4.03694 6.88078 4.28074C6.63698 4.52453 6.50002 4.85519 6.50002 5.19998V11.7351C6.0567 11.7848 5.62053 11.8852 5.20002 12.0341V5.19998ZM14.95 9.09998H19.2309L14.3 4.16908V8.44998C14.3 8.62237 14.3685 8.7877 14.4904 8.90959C14.6123 9.03149 14.7776 9.09998 14.95 9.09998ZM7.15002 22.1C8.17182 22.1 9.11562 21.762 9.87482 21.1939L13.1898 24.5089C13.2502 24.5693 13.3218 24.6173 13.4007 24.65C13.4796 24.6827 13.5641 24.6996 13.6496 24.6997C13.735 24.6997 13.8195 24.683 13.8985 24.6504C13.9774 24.6177 14.0491 24.5699 14.1096 24.5095C14.17 24.4492 14.218 24.3775 14.2507 24.2986C14.2834 24.2197 14.3003 24.1352 14.3004 24.0498C14.3004 23.9644 14.2837 23.8798 14.251 23.8009C14.2184 23.7219 14.1706 23.6502 14.1102 23.5898L10.7952 20.2748C11.4088 19.4542 11.7275 18.4505 11.6996 17.4262C11.6718 16.402 11.299 15.4171 10.6417 14.6311C9.98435 13.8451 9.08097 13.3039 8.07779 13.0953C7.07462 12.8867 6.03038 13.0227 5.11418 13.4815C4.19797 13.9402 3.46343 14.6948 3.0295 15.623C2.59556 16.5513 2.48763 17.5988 2.72319 18.596C2.95874 19.5932 3.52399 20.4817 4.32741 21.1176C5.13083 21.7535 6.12537 22.0997 7.15002 22.1ZM7.15002 20.8C6.28806 20.8 5.46141 20.4576 4.85192 19.8481C4.24243 19.2386 3.90002 18.4119 3.90002 17.55C3.90002 16.688 4.24243 15.8614 4.85192 15.2519C5.46141 14.6424 6.28806 14.3 7.15002 14.3C8.01197 14.3 8.83862 14.6424 9.44811 15.2519C10.0576 15.8614 10.4 16.688 10.4 17.55C10.4 18.4119 10.0576 19.2386 9.44811 19.8481C8.83862 20.4576 8.01197 20.8 7.15002 20.8Z" fill="#1E1E1E"/>
<path d="M7.80002 2.59998L7.80002 -4.40002L7.80002 2.59998ZM13.7618 2.59998L13.768 -4.40002H13.7618V2.59998ZM15.1398 3.17198L10.187 8.11864L10.1907 8.12236L15.1398 3.17198ZM20.2293 8.26018L25.1806 3.31201L25.1784 3.3098L20.2293 8.26018ZM20.8 9.63818L27.8 9.63818L27.8 9.63668L20.8 9.63818ZM15.4895 23.4L8.89268 25.7413L10.5461 30.4H15.4895V23.4ZM15.0293 22.672L10.0796 27.6217L10.0845 27.6266L15.0293 22.672ZM14.4573 22.1V15.1H-2.44215L9.50756 27.0497L14.4573 22.1ZM19.5 10.4H26.5V3.39998H19.5V10.4ZM13 8.44998L6.00002 8.44998L13 8.44998ZM13 3.89998H20V-3.10002H13V3.89998ZM7.80002 3.89998L7.80002 -3.10002L7.80002 3.89998ZM6.50002 11.7351L7.28104 18.6914L13.5 17.9931V11.7351H6.50002ZM5.20002 12.0341H-1.79998V21.9387L7.5366 18.6326L5.20002 12.0341ZM19.2309 9.09998V16.1H36.1304L24.1807 4.15023L19.2309 9.09998ZM14.3 4.16908L19.2498 -0.780672L7.30002 -12.7304L7.30002 4.16908H14.3ZM7.15002 22.1L7.14801 29.1H7.15002V22.1ZM9.87482 21.1939L14.8246 16.2441L10.5364 11.956L5.68096 15.5893L9.87482 21.1939ZM13.1898 24.5089L18.1431 19.5626L18.1396 19.5591L13.1898 24.5089ZM14.1102 23.5898L19.0635 18.6435L19.06 18.64L14.1102 23.5898ZM10.7952 20.2748L5.18922 16.0828L1.55876 20.9378L5.84547 25.2245L10.7952 20.2748ZM10.4 17.55L17.4 17.55L10.4 17.55ZM12.2 5.19998C12.2 6.36693 11.7364 7.48608 10.9113 8.31125L1.01179 -1.58825C-0.788559 0.212101 -1.79998 2.6539 -1.79998 5.19998H12.2ZM10.9113 8.31125C10.0861 9.13641 8.96697 9.59998 7.80002 9.59998L7.80002 -4.40002C5.25394 -4.40002 2.81214 -3.3886 1.01179 -1.58825L10.9113 8.31125ZM7.80002 9.59998H13.7618V-4.40002H7.80002V9.59998ZM13.7557 9.59997C12.4168 9.59879 11.1331 9.06597 10.187 8.11864L20.0926 -1.77469C18.4158 -3.45362 16.1409 -4.39793 13.768 -4.40002L13.7557 9.59997ZM10.1907 8.12236L15.2802 13.2106L25.1784 3.3098L20.0889 -1.7784L10.1907 8.12236ZM15.278 13.2083C14.3319 12.2616 13.8003 10.9781 13.8 9.63967L27.8 9.63668C27.7995 7.26465 26.8574 4.98983 25.1806 3.31201L15.278 13.2083ZM13.8 9.63818V20.8H27.8V9.63818H13.8ZM13.8 20.8C13.8 19.633 14.2636 18.5139 15.0887 17.6887L24.9882 27.5882C26.7886 25.7879 27.8 23.3461 27.8 20.8H13.8ZM15.0887 17.6887C15.9139 16.8635 17.0331 16.4 18.2 16.4V30.4C20.7461 30.4 23.1879 29.3885 24.9882 27.5882L15.0887 17.6887ZM18.2 16.4H15.4895V30.4H18.2V16.4ZM22.0863 21.0587C21.6401 19.8014 20.9184 18.6597 19.9741 17.7173L10.0845 27.6266C9.55167 27.0949 9.14447 26.4507 8.89268 25.7413L22.0863 21.0587ZM19.9791 17.7222L19.4071 17.1502L9.50756 27.0497L10.0796 27.6217L19.9791 17.7222ZM14.4573 29.1H18.2V15.1H14.4573V29.1ZM18.2 29.1C20.4013 29.1 22.5124 28.2255 24.069 26.669L14.1695 16.7695C15.2385 15.7005 16.6883 15.1 18.2 15.1V29.1ZM24.069 26.669C25.6256 25.1124 26.5 23.0013 26.5 20.8H12.5C12.5 19.2882 13.1005 17.8384 14.1695 16.7695L24.069 26.669ZM26.5 20.8V10.4H12.5V20.8H26.5ZM19.5 3.39998H14.95V17.4H19.5V3.39998ZM14.95 3.39998C16.2894 3.39998 17.5738 3.93203 18.5209 4.87909L8.62141 14.7786C10.2999 16.457 12.5763 17.4 14.95 17.4V3.39998ZM18.5209 4.87909C19.468 5.82615 20 7.11064 20 8.44998L6.00002 8.44998C6.00002 10.8237 6.94296 13.1001 8.62141 14.7786L18.5209 4.87909ZM20 8.44998V3.89998H6.00002V8.44998H20ZM13 -3.10002H7.80002V10.9H13V-3.10002ZM7.80002 -3.10002C5.59872 -3.10002 3.48758 -2.22556 1.93103 -0.669011L11.8305 9.23048C10.7616 10.2994 9.31175 10.9 7.80002 10.9L7.80002 -3.10002ZM1.93103 -0.669011C0.37448 0.887539 -0.499984 2.99868 -0.499984 5.19998H13.5C13.5 6.71171 12.8995 8.16153 11.8305 9.23048L1.93103 -0.669011ZM-0.499984 5.19998V11.7351H13.5V5.19998H-0.499984ZM5.71899 4.77878C4.74522 4.88812 3.78714 5.10847 2.86344 5.43556L7.5366 18.6326C7.45393 18.6619 7.36818 18.6816 7.28104 18.6914L5.71899 4.77878ZM12.2 12.0341V5.19998H-1.79998V12.0341H12.2ZM14.95 16.1H19.2309V2.09998H14.95V16.1ZM24.1807 4.15023L19.2498 -0.780672L9.35027 9.11882L14.2812 14.0497L24.1807 4.15023ZM7.30002 4.16908V8.44998H21.3V4.16908H7.30002ZM7.30002 8.44998C7.30002 10.4789 8.10599 12.4247 9.54065 13.8593L19.4401 3.95985C20.631 5.15071 21.3 6.76586 21.3 8.44998H7.30002ZM9.54065 13.8593C10.9753 15.294 12.9211 16.1 14.95 16.1V2.09998C16.6341 2.09998 18.2493 2.76899 19.4401 3.95985L9.54065 13.8593ZM7.15002 29.1C9.73984 29.1 12.1446 28.2383 14.0687 26.7985L5.68096 15.5893C6.08666 15.2857 6.60379 15.1 7.15002 15.1V29.1ZM4.92507 26.1436L8.24007 29.4586L18.1396 19.5591L14.8246 16.2441L4.92507 26.1436ZM8.23657 29.4551C8.94652 30.1661 9.7895 30.7302 10.7174 31.1153L16.0841 18.1847C16.8541 18.5044 17.5538 18.9725 18.1431 19.5626L8.23657 29.4551ZM10.7174 31.1153C11.6452 31.5004 12.6399 31.699 13.6446 31.6997L13.6545 17.6997C14.4884 17.7003 15.314 17.8651 16.0841 18.1847L10.7174 31.1153ZM13.6446 31.6997C14.6493 31.7004 15.6443 31.5032 16.5727 31.1194L11.2243 18.1813C11.9948 17.8628 12.8206 17.6991 13.6545 17.6997L13.6446 31.6997ZM16.5727 31.1194C17.5011 30.7356 18.3449 30.1727 19.0558 29.4628L9.16332 19.5563C9.75338 18.967 10.4537 18.4998 11.2243 18.1813L16.5727 31.1194ZM19.0558 29.4628C19.7668 28.7528 20.3309 27.9098 20.716 26.982L7.78543 21.6153C8.10505 20.8452 8.57323 20.1455 9.16332 19.5563L19.0558 29.4628ZM20.716 26.982C21.1011 26.0541 21.2997 25.0594 21.3004 24.0547L7.30038 24.0448C7.30097 23.2109 7.46581 22.3854 7.78543 21.6153L20.716 26.982ZM21.3004 24.0547C21.3011 23.05 21.1039 22.0551 20.7201 21.1267L7.782 26.4751C7.46346 25.7045 7.29979 24.8787 7.30038 24.0448L21.3004 24.0547ZM20.7201 21.1267C20.3363 20.1982 19.7734 19.3544 19.0635 18.6435L9.15697 28.536C8.56776 27.946 8.10055 27.2457 7.782 26.4751L20.7201 21.1267ZM19.06 18.64L15.745 15.325L5.84547 25.2245L9.16047 28.5395L19.06 18.64ZM16.4012 24.4668C17.9588 22.3837 18.7678 19.8359 18.697 17.2359L4.70223 17.6166C4.68722 17.0651 4.85882 16.5246 5.18922 16.0828L16.4012 24.4668ZM18.697 17.2359C18.6263 14.6358 17.68 12.1358 16.0115 10.1405L5.2719 19.1217C4.91796 18.6984 4.71723 18.1681 4.70223 17.6166L18.697 17.2359ZM16.0115 10.1405C14.3429 8.14522 12.0497 6.77157 9.50313 6.24195L6.65245 19.9486C6.11228 19.8363 5.62584 19.5449 5.2719 19.1217L16.0115 10.1405ZM9.50313 6.24195C6.95661 5.71233 4.30587 6.05775 1.98011 7.22229L8.24825 19.7407C7.7549 19.9877 7.19262 20.061 6.65245 19.9486L9.50313 6.24195ZM1.98011 7.22229C-0.345641 8.38683 -2.21024 10.3023 -3.31177 12.6585L9.37077 18.5876C9.13711 19.0874 8.74159 19.4937 8.24825 19.7407L1.98011 7.22229ZM-3.31177 12.6585C-4.4133 15.0148 -4.68728 17.6739 -4.08933 20.2052L9.5357 16.9867C9.66254 17.5237 9.60442 18.0877 9.37077 18.5876L-3.31177 12.6585ZM-4.08933 20.2052C-3.49138 22.7366 -2.05652 24.992 -0.017072 26.6063L8.67189 15.6289C9.1045 15.9714 9.40887 16.4498 9.5357 16.9867L-4.08933 20.2052ZM-0.017072 26.6063C2.02237 28.2206 4.547 29.0992 7.14801 29.1L7.15202 15.1C7.70375 15.1001 8.23928 15.2865 8.67189 15.6289L-0.017072 26.6063ZM7.15002 13.8C8.14458 13.8 9.09841 14.1951 9.80167 14.8983L-0.0978284 24.7978C1.82442 26.7201 4.43155 27.8 7.15002 27.8V13.8ZM9.80167 14.8983C10.5049 15.6016 10.9 16.5554 10.9 17.55H-3.09998C-3.09998 20.2684 -2.02008 22.8756 -0.0978284 24.7978L9.80167 14.8983ZM10.9 17.55C10.9 18.5445 10.5049 19.4984 9.80167 20.2016L-0.0978284 10.3021C-2.02008 12.2244 -3.09998 14.8315 -3.09998 17.55H10.9ZM9.80167 20.2016C9.09841 20.9049 8.14458 21.3 7.15002 21.3V7.29998C4.43155 7.29998 1.82442 8.37988 -0.0978284 10.3021L9.80167 20.2016ZM7.15002 21.3C6.15545 21.3 5.20163 20.9049 4.49837 20.2016L14.3979 10.3021C12.4756 8.37988 9.86849 7.29998 7.15002 7.29998V21.3ZM4.49837 20.2016C3.7951 19.4984 3.40002 18.5445 3.40002 17.55L17.4 17.55C17.4 14.8315 16.3201 12.2244 14.3979 10.3021L4.49837 20.2016ZM3.40002 17.55C3.40002 16.5554 3.7951 15.6016 4.49837 14.8983L14.3979 24.7978C16.3201 22.8756 17.4 20.2684 17.4 17.55L3.40002 17.55ZM4.49837 14.8983C5.20163 14.1951 6.15545 13.8 7.15002 13.8V27.8C9.86849 27.8 12.4756 26.7201 14.3979 24.7978L4.49837 14.8983Z" fill="black" mask="url(#path-1-inside-1_50_198)"/>
</svg>
