<svg width="25" height="25" viewBox="0 0 28 28" fill="none" xmlns="http://www.w3.org/2000/svg">
<path d="M14 16.3333C16.5737 16.3333 18.6667 14.2403 18.6667 11.6667C18.6667 9.093 16.5737 7 14 7C11.4264 7 9.33337 9.093 9.33337 11.6667C9.33337 14.2403 11.4264 16.3333 14 16.3333ZM14 9.33333C15.2869 9.33333 16.3334 10.3798 16.3334 11.6667C16.3334 12.9535 15.2869 14 14 14C12.7132 14 11.6667 12.9535 11.6667 11.6667C11.6667 10.3798 12.7132 9.33333 14 9.33333Z" fill="#1E1E1E"/>
<path d="M13.3233 25.4497C13.5209 25.5904 13.7574 25.666 13.9999 25.666C14.2425 25.666 14.479 25.5904 14.6766 25.4497C15.0313 25.1989 23.3671 19.18 23.3333 11.6667C23.3333 6.52054 19.1461 2.33337 13.9999 2.33337C8.85377 2.33337 4.66661 6.52054 4.66661 11.6609C4.63277 19.18 12.9686 25.1989 13.3233 25.4497ZM13.9999 4.66671C17.8604 4.66671 20.9999 7.80621 20.9999 11.6725C21.0244 16.8502 15.8806 21.4994 13.9999 23.0242C12.1204 21.4982 6.97544 16.8479 6.99994 11.6667C6.99994 7.80621 10.1394 4.66671 13.9999 4.66671Z" fill="#1E1E1E"/>
</svg>
