<svg width="24" height="24" viewBox="0 0 24 24" fill="none" xmlns="http://www.w3.org/2000/svg">
<mask id="mask0_46_312" style="mask-type:luminance" maskUnits="userSpaceOnUse" x="4" y="2" width="21" height="23">
<path d="M13.5 3L19 8.5V20C19 20.55 18.55 21 18 21H6C5.45 21 5 20.55 5 20V4C5 3.45 5.45 3 6 3H13.5Z" stroke="white" stroke-width="2" stroke-linecap="round" stroke-linejoin="round"/>
<path d="M14.5 3.5V8H19L14.5 3.5Z" stroke="white" stroke-width="2" stroke-linecap="round" stroke-linejoin="round"/>
<path d="M9 13H15" stroke="white" stroke-width="2" stroke-linecap="round" stroke-linejoin="round"/>
<path d="M9 17H12" stroke="white" stroke-width="2" stroke-linecap="round" stroke-linejoin="round"/>
<path d="M19 13C22.31 13 25 15.69 25 19C25 22.31 22.31 25 19 25C15.69 25 13 22.31 13 19C13 15.69 15.69 13 19 13Z" fill="black"/>
<path d="M16 19H22" stroke="white" stroke-width="2" stroke-linecap="round" stroke-linejoin="round"/>
<path d="M19 16V22" stroke="white" stroke-width="2" stroke-linecap="round" stroke-linejoin="round"/>
</mask>
<g mask="url(#mask0_46_312)">
<path d="M24 0H0V24H24V0Z" fill="#1E1E1E"/>
</g>
</svg>
