<svg width="45" height="45" viewBox="0 0 45 45" fill="none" xmlns="http://www.w3.org/2000/svg">
<path d="M26.25 15V11.25C26.25 10.2554 25.8549 9.30161 25.1516 8.59835C24.4484 7.89509 23.4946 7.5 22.5 7.5H9.375C8.38044 7.5 7.42661 7.89509 6.72335 8.59835C6.02009 9.30161 5.625 10.2554 5.625 11.25V33.75C5.625 34.7446 6.02009 35.6984 6.72335 36.4016C7.42661 37.1049 8.38044 37.5 9.375 37.5H22.5C23.4946 37.5 24.4484 37.1049 25.1516 36.4016C25.8549 35.6984 26.25 34.7446 26.25 33.75V30" stroke="#F24822" stroke-width="3" stroke-linecap="round" stroke-linejoin="round"/>
<path d="M16.875 22.5H39.375M39.375 22.5L33.75 16.875M39.375 22.5L33.75 28.125" stroke="#F24822" stroke-width="3" stroke-linecap="round" stroke-linejoin="round"/>
</svg>
