<svg width="24" height="24" viewBox="0 0 24 24" fill="none" xmlns="http://www.w3.org/2000/svg">
<path d="M23.25 22.1895L19.734 18.6735C20.6742 17.4642 21.1181 15.9419 20.9753 14.4168C20.8326 12.8917 20.1139 11.4783 18.9656 10.4644C17.8173 9.45058 16.3258 8.91252 14.7947 8.95981C13.2636 9.0071 11.8081 9.63617 10.7246 10.7189C9.64103 11.8017 9.01092 13.2568 8.96255 14.7878C8.91418 16.3189 9.45119 17.8108 10.4642 18.9598C11.4772 20.1088 12.8901 20.8285 14.4152 20.9723C15.9402 21.1162 17.4628 20.6733 18.6727 19.734L22.1895 23.25L23.25 22.1895ZM15 19.5C14.11 19.5 13.24 19.2361 12.4999 18.7416C11.7599 18.2471 11.1831 17.5443 10.8425 16.7221C10.5019 15.8998 10.4128 14.995 10.5865 14.1221C10.7601 13.2492 11.1887 12.4474 11.818 11.818C12.4474 11.1887 13.2492 10.7601 14.1221 10.5865C14.995 10.4128 15.8998 10.5019 16.7221 10.8425C17.5443 11.1831 18.2471 11.7599 18.7416 12.4999C19.2361 13.24 19.5 14.11 19.5 15C19.4986 16.193 19.0241 17.3368 18.1804 18.1804C17.3368 19.0241 16.193 19.4986 15 19.5ZM6 19.5H3C2.60218 19.5 2.22064 19.342 1.93934 19.0607C1.65804 18.7794 1.5 18.3978 1.5 18V15H3V18H6V19.5ZM1.5 9H3V12H1.5V9ZM19.5 6H18V3H15V1.5H18C18.3978 1.5 18.7794 1.65804 19.0607 1.93934C19.342 2.22064 19.5 2.60218 19.5 3V6ZM9 1.5H12V3H9V1.5ZM3 6H1.5V3C1.5 2.60218 1.65804 2.22064 1.93934 1.93934C2.22064 1.65804 2.60218 1.5 3 1.5H6V3H3V6Z" fill="#1E1E1E"/>
</svg>
