<?xml version="1.0" encoding="iso-8859-1"?>
<!-- Uploaded to: SVG Repo, www.svgrepo.com, Generator: SVG Repo Mixer Tools -->
<svg fill="#000000" height="800px" width="800px" version="1.1" id="Capa_1" xmlns="http://www.w3.org/2000/svg" xmlns:xlink="http://www.w3.org/1999/xlink" 
	 viewBox="0 0 490 490" xml:space="preserve">
<g>
	<g>
		<g>
			<path d="M136.5,131.1c0,5.4,4.3,10.1,10.1,10.1h197.2c5.4,0,10.1-4.3,10.1-10.1s-4.3-10.1-10.1-10.1H146.2
				C140.8,120.9,136.5,125.6,136.5,131.1z"/>
			<path d="M343.8,184.3H146.2c-5.4,0-10.1,4.3-10.1,10.1s4.3,10.1,10.1,10.1h197.2c5.4,0,10.1-4.3,10.1-10.1
				S349.2,184.3,343.8,184.3z"/>
			<path d="M353.5,257.4c0-5.4-4.3-10.1-10.1-10.1H146.2c-5.4,0-10.1,4.3-10.1,10.1s4.3,10.1,10.1,10.1h197.2
				C349.2,267.6,353.5,262.9,353.5,257.4z"/>
			<path d="M259,353.9l43.2-43.2c4.3-3.9,4.3-10.1,0.4-14s-10.1-3.9-14,0L245,339.9l-43.2-43.2c-3.9-3.9-10.1-3.9-14,0
				s-3.9,10.1,0,14l43.2,43.2l-43.2,43.2c-3.9,3.9-3.9,10.1,0,14l0,0c3.9,3.9,10.1,3.9,14,0l43.2-43.2l43.3,43.3
				c3.9,3.9,10.1,3.9,14,0s3.9-10.1,0-14L259,353.9z"/>
			<path d="M324.7,27.6h-52.1C272.6,12.4,260.2,0,245,0c-15.2,0-27.6,12.4-27.6,27.6h-52.1l-15.2,44.3h189.8L324.7,27.6z"/>
			<polygon points="350,40.1 360.1,69.6 385,69.6 385,447.2 105,447.2 105,69.6 129.9,69.6 140,40.1 73.1,40.1 73.1,490 416.9,490 
				416.9,40.1 			"/>
		</g>
	</g>
</g>
</svg>